<svg xmlns="http://www.w3.org/2000/svg" fill="#fff" viewBox="0 0 24.98 25.02"><path d="M10.33 18a1.93 1.93 0 0 0-1-2.54h0l-1.65-.66a2.68 2.68 0 0 1 2 0 2.65 2.65 0 0 1 1.44 3.45h0a2.67 2.67 0 0 1-3.49 1.43 2.63 2.63 0 0 1-1.37-1.3L7.8 19a2 2 0 0 0 2.53-1zM16.6 6.25a3.14 3.14 0 1 0 3.11 3.13 3.13 3.13 0 0 0-3.11-3.13zm0 5.48h0a2.37 2.37 0 1 1 2.37-2.38 2.36 2.36 0 0 1-2.42 2.38zm-.53 12.75A12.49 12.49 0 0 1 .5 16.1L5.25 18a3.41 3.41 0 0 0 2 2.42 3.46 3.46 0 0 0 4.52-1.85 3.38 3.38 0 0 0 .27-1.41l4.36-3.1h.1a4.71 4.71 0 1 0-4.74-4.71v.06L8.7 13.8a3.47 3.47 0 0 0-1.46.26 3.23 3.23 0 0 0-.58.31L0 11.67a12.5 12.5 0 1 1 16.07 12.81z"/></svg>